<mxfile host="app.diagrams.net" modified="2023-05-28T21:39:06.808Z" agent="Mozilla/5.0 (Macintosh; Intel Mac OS X 10_15_7) AppleWebKit/605.1.15 (KHTML, like Gecko) Version/16.5 Safari/605.1.15" etag="5Y5W2AJ6nl0w0MDx4nlL" version="21.3.5" type="github">
  <diagram name="Page-1" id="9BCB3obAzaxHh5N5iVWj">
    <mxGraphModel dx="1482" dy="855" grid="1" gridSize="10" guides="1" tooltips="1" connect="1" arrows="1" fold="1" page="1" pageScale="1" pageWidth="850" pageHeight="1100" math="0" shadow="0">
      <root>
        <mxCell id="0" />
        <mxCell id="1" parent="0" />
        <mxCell id="wJimey8sM2e01Dv6nmVG-2" value="Dobavljac" style="rounded=0;whiteSpace=wrap;html=1;" parent="1" vertex="1">
          <mxGeometry x="140" y="200" width="120" height="60" as="geometry" />
        </mxCell>
        <mxCell id="wJimey8sM2e01Dv6nmVG-10" value="" style="endArrow=none;html=1;rounded=0;entryX=0.5;entryY=1;entryDx=0;entryDy=0;exitX=0.5;exitY=0;exitDx=0;exitDy=0;" parent="1" source="wJimey8sM2e01Dv6nmVG-2" target="wJimey8sM2e01Dv6nmVG-40" edge="1">
          <mxGeometry width="50" height="50" relative="1" as="geometry">
            <mxPoint x="200" y="200" as="sourcePoint" />
            <mxPoint x="87.5" y="160.00000000000006" as="targetPoint" />
          </mxGeometry>
        </mxCell>
        <mxCell id="wJimey8sM2e01Dv6nmVG-14" value="&lt;u&gt;&lt;b&gt;Ime&lt;/b&gt;&lt;/u&gt;" style="ellipse;whiteSpace=wrap;html=1;fillColor=#f8cecc;strokeColor=#b85450;" parent="1" vertex="1">
          <mxGeometry x="275" y="560" width="90" height="50" as="geometry" />
        </mxCell>
        <mxCell id="wJimey8sM2e01Dv6nmVG-16" value="DOBAVLJA" style="rhombus;whiteSpace=wrap;html=1;fillColor=#dae8fc;strokeColor=#6c8ebf;" parent="1" vertex="1">
          <mxGeometry x="410" y="190" width="100" height="80" as="geometry" />
        </mxCell>
        <mxCell id="wJimey8sM2e01Dv6nmVG-20" value="" style="endArrow=none;html=1;rounded=0;exitX=1;exitY=0.5;exitDx=0;exitDy=0;entryX=0;entryY=0.5;entryDx=0;entryDy=0;" parent="1" source="wJimey8sM2e01Dv6nmVG-2" target="wJimey8sM2e01Dv6nmVG-16" edge="1">
          <mxGeometry width="50" height="50" relative="1" as="geometry">
            <mxPoint x="370" y="240" as="sourcePoint" />
            <mxPoint x="480" y="220" as="targetPoint" />
          </mxGeometry>
        </mxCell>
        <mxCell id="wJimey8sM2e01Dv6nmVG-48" value="(1, N)" style="edgeLabel;html=1;align=center;verticalAlign=middle;resizable=0;points=[];" parent="wJimey8sM2e01Dv6nmVG-20" vertex="1" connectable="0">
          <mxGeometry x="-0.1581" y="-1" relative="1" as="geometry">
            <mxPoint as="offset" />
          </mxGeometry>
        </mxCell>
        <mxCell id="wJimey8sM2e01Dv6nmVG-21" value="Voce" style="rounded=0;whiteSpace=wrap;html=1;fillColor=#ffe6cc;strokeColor=#d79b00;" parent="1" vertex="1">
          <mxGeometry x="580" y="360" width="120" height="60" as="geometry" />
        </mxCell>
        <mxCell id="wJimey8sM2e01Dv6nmVG-23" value="UZGAJANO U" style="rhombus;whiteSpace=wrap;html=1;fillColor=#dae8fc;strokeColor=#6c8ebf;" parent="1" vertex="1">
          <mxGeometry x="590" y="460" width="100" height="80" as="geometry" />
        </mxCell>
        <mxCell id="wJimey8sM2e01Dv6nmVG-24" value="(1, N)" style="endArrow=none;html=1;rounded=0;entryX=0.5;entryY=1;entryDx=0;entryDy=0;exitX=0.5;exitY=0;exitDx=0;exitDy=0;" parent="1" source="wJimey8sM2e01Dv6nmVG-23" target="wJimey8sM2e01Dv6nmVG-21" edge="1">
          <mxGeometry width="50" height="50" relative="1" as="geometry">
            <mxPoint x="650" y="460" as="sourcePoint" />
            <mxPoint x="700" y="410" as="targetPoint" />
          </mxGeometry>
        </mxCell>
        <mxCell id="wJimey8sM2e01Dv6nmVG-25" value="" style="endArrow=none;html=1;rounded=0;exitX=1;exitY=0.5;exitDx=0;exitDy=0;entryX=0;entryY=0.5;entryDx=0;entryDy=0;" parent="1" source="wJimey8sM2e01Dv6nmVG-46" target="wJimey8sM2e01Dv6nmVG-23" edge="1">
          <mxGeometry width="50" height="50" relative="1" as="geometry">
            <mxPoint x="380" y="490" as="sourcePoint" />
            <mxPoint x="500" y="480" as="targetPoint" />
          </mxGeometry>
        </mxCell>
        <mxCell id="wJimey8sM2e01Dv6nmVG-51" value="(0, M)" style="edgeLabel;html=1;align=center;verticalAlign=middle;resizable=0;points=[];" parent="wJimey8sM2e01Dv6nmVG-25" vertex="1" connectable="0">
          <mxGeometry x="-0.5551" y="-3" relative="1" as="geometry">
            <mxPoint as="offset" />
          </mxGeometry>
        </mxCell>
        <mxCell id="wJimey8sM2e01Dv6nmVG-26" value="" style="endArrow=none;html=1;rounded=0;exitX=1;exitY=0.5;exitDx=0;exitDy=0;entryX=0.5;entryY=0;entryDx=0;entryDy=0;" parent="1" source="wJimey8sM2e01Dv6nmVG-16" target="wJimey8sM2e01Dv6nmVG-21" edge="1">
          <mxGeometry width="50" height="50" relative="1" as="geometry">
            <mxPoint x="560" y="230" as="sourcePoint" />
            <mxPoint x="670" y="210" as="targetPoint" />
            <Array as="points">
              <mxPoint x="640" y="230" />
            </Array>
          </mxGeometry>
        </mxCell>
        <mxCell id="wJimey8sM2e01Dv6nmVG-49" value="(0, M)" style="edgeLabel;html=1;align=center;verticalAlign=middle;resizable=0;points=[];" parent="wJimey8sM2e01Dv6nmVG-26" vertex="1" connectable="0">
          <mxGeometry x="0.4919" relative="1" as="geometry">
            <mxPoint as="offset" />
          </mxGeometry>
        </mxCell>
        <mxCell id="wJimey8sM2e01Dv6nmVG-27" value="(1, M)" style="endArrow=none;html=1;rounded=0;entryX=0.5;entryY=1;entryDx=0;entryDy=0;exitX=0.5;exitY=0;exitDx=0;exitDy=0;" parent="1" source="wJimey8sM2e01Dv6nmVG-28" target="wJimey8sM2e01Dv6nmVG-2" edge="1">
          <mxGeometry width="50" height="50" relative="1" as="geometry">
            <mxPoint x="310" y="330" as="sourcePoint" />
            <mxPoint x="340" y="300" as="targetPoint" />
          </mxGeometry>
        </mxCell>
        <mxCell id="wJimey8sM2e01Dv6nmVG-28" value="DOBAVLJA" style="rhombus;whiteSpace=wrap;html=1;fillColor=#dae8fc;strokeColor=#6c8ebf;" parent="1" vertex="1">
          <mxGeometry x="150" y="300" width="100" height="80" as="geometry" />
        </mxCell>
        <mxCell id="wJimey8sM2e01Dv6nmVG-29" value="" style="endArrow=none;html=1;rounded=0;entryX=0.5;entryY=1;entryDx=0;entryDy=0;exitX=0.5;exitY=0;exitDx=0;exitDy=0;" parent="1" source="wJimey8sM2e01Dv6nmVG-46" target="wJimey8sM2e01Dv6nmVG-28" edge="1">
          <mxGeometry width="50" height="50" relative="1" as="geometry">
            <mxPoint x="320" y="460" as="sourcePoint" />
            <mxPoint x="340" y="400" as="targetPoint" />
            <Array as="points">
              <mxPoint x="320" y="420" />
              <mxPoint x="200" y="420" />
            </Array>
          </mxGeometry>
        </mxCell>
        <mxCell id="wJimey8sM2e01Dv6nmVG-50" value="(0, N)" style="edgeLabel;html=1;align=center;verticalAlign=middle;resizable=0;points=[];" parent="wJimey8sM2e01Dv6nmVG-29" vertex="1" connectable="0">
          <mxGeometry x="-0.2529" y="2" relative="1" as="geometry">
            <mxPoint as="offset" />
          </mxGeometry>
        </mxCell>
        <mxCell id="wJimey8sM2e01Dv6nmVG-30" value="" style="endArrow=none;html=1;rounded=0;entryX=0.5;entryY=0;entryDx=0;entryDy=0;exitX=0.5;exitY=1;exitDx=0;exitDy=0;" parent="1" source="wJimey8sM2e01Dv6nmVG-41" target="wJimey8sM2e01Dv6nmVG-2" edge="1">
          <mxGeometry width="50" height="50" relative="1" as="geometry">
            <mxPoint x="197.5" y="160.00000000000006" as="sourcePoint" />
            <mxPoint x="290" y="160" as="targetPoint" />
          </mxGeometry>
        </mxCell>
        <mxCell id="wJimey8sM2e01Dv6nmVG-31" value="" style="endArrow=none;html=1;rounded=0;entryX=0.5;entryY=1;entryDx=0;entryDy=0;exitX=0.5;exitY=0;exitDx=0;exitDy=0;" parent="1" source="wJimey8sM2e01Dv6nmVG-2" target="wJimey8sM2e01Dv6nmVG-42" edge="1">
          <mxGeometry width="50" height="50" relative="1" as="geometry">
            <mxPoint x="270" y="210" as="sourcePoint" />
            <mxPoint x="302.5" y="160.00000000000006" as="targetPoint" />
          </mxGeometry>
        </mxCell>
        <mxCell id="wJimey8sM2e01Dv6nmVG-32" value="" style="endArrow=none;html=1;rounded=0;entryX=0.5;entryY=1;entryDx=0;entryDy=0;exitX=0.5;exitY=0;exitDx=0;exitDy=0;" parent="1" source="wJimey8sM2e01Dv6nmVG-14" target="wJimey8sM2e01Dv6nmVG-46" edge="1">
          <mxGeometry width="50" height="50" relative="1" as="geometry">
            <mxPoint x="320" y="570" as="sourcePoint" />
            <mxPoint x="320" y="520" as="targetPoint" />
          </mxGeometry>
        </mxCell>
        <mxCell id="wJimey8sM2e01Dv6nmVG-34" value="Cijena" style="ellipse;whiteSpace=wrap;html=1;flipV=1;flipH=0;direction=east;fillColor=#f8cecc;strokeColor=#b85450;" parent="1" vertex="1">
          <mxGeometry x="455" y="430" width="90" height="50" as="geometry" />
        </mxCell>
        <mxCell id="wJimey8sM2e01Dv6nmVG-37" value="" style="endArrow=none;html=1;rounded=0;exitX=1;exitY=0.5;exitDx=0;exitDy=0;entryX=0;entryY=0.5;entryDx=0;entryDy=0;" parent="1" source="wJimey8sM2e01Dv6nmVG-43" target="wJimey8sM2e01Dv6nmVG-21" edge="1">
          <mxGeometry width="50" height="50" relative="1" as="geometry">
            <mxPoint x="555" y="305" as="sourcePoint" />
            <mxPoint x="760" y="210" as="targetPoint" />
          </mxGeometry>
        </mxCell>
        <mxCell id="wJimey8sM2e01Dv6nmVG-39" value="" style="endArrow=none;html=1;rounded=0;exitX=1;exitY=0.5;exitDx=0;exitDy=0;entryX=0;entryY=0.5;entryDx=0;entryDy=0;" parent="1" source="wJimey8sM2e01Dv6nmVG-34" target="wJimey8sM2e01Dv6nmVG-21" edge="1">
          <mxGeometry width="50" height="50" relative="1" as="geometry">
            <mxPoint x="545" y="375" as="sourcePoint" />
            <mxPoint x="590" y="370" as="targetPoint" />
          </mxGeometry>
        </mxCell>
        <mxCell id="wJimey8sM2e01Dv6nmVG-40" value="Ime" style="ellipse;whiteSpace=wrap;html=1;fillColor=#f8cecc;strokeColor=#b85450;" parent="1" vertex="1">
          <mxGeometry x="65" y="110" width="90" height="50" as="geometry" />
        </mxCell>
        <mxCell id="wJimey8sM2e01Dv6nmVG-41" value="Adresa" style="ellipse;whiteSpace=wrap;html=1;fillColor=#f8cecc;strokeColor=#b85450;" parent="1" vertex="1">
          <mxGeometry x="155" y="80" width="90" height="50" as="geometry" />
        </mxCell>
        <mxCell id="wJimey8sM2e01Dv6nmVG-42" value="&lt;b&gt;&lt;u&gt;ID&lt;/u&gt;&lt;/b&gt;" style="ellipse;whiteSpace=wrap;html=1;fillColor=#f8cecc;strokeColor=#b85450;" parent="1" vertex="1">
          <mxGeometry x="245" y="110" width="90" height="50" as="geometry" />
        </mxCell>
        <mxCell id="wJimey8sM2e01Dv6nmVG-43" value="&lt;u&gt;&lt;b&gt;Ime&lt;/b&gt;&lt;/u&gt;" style="ellipse;whiteSpace=wrap;html=1;flipV=1;flipH=0;direction=east;fillColor=#f8cecc;strokeColor=#b85450;" parent="1" vertex="1">
          <mxGeometry x="450" y="365" width="90" height="50" as="geometry" />
        </mxCell>
        <mxCell id="wJimey8sM2e01Dv6nmVG-45" value="Dobavljac" style="rounded=0;whiteSpace=wrap;html=1;fillColor=#ffe6cc;strokeColor=#d79b00;" parent="1" vertex="1">
          <mxGeometry x="140" y="200" width="120" height="60" as="geometry" />
        </mxCell>
        <mxCell id="wJimey8sM2e01Dv6nmVG-46" value="Zemlja" style="rounded=0;whiteSpace=wrap;html=1;fillColor=#ffe6cc;strokeColor=#d79b00;" parent="1" vertex="1">
          <mxGeometry x="260" y="470" width="120" height="60" as="geometry" />
        </mxCell>
        <mxCell id="wJimey8sM2e01Dv6nmVG-52" value="Kupac" style="rounded=0;whiteSpace=wrap;html=1;fillColor=#ffe6cc;strokeColor=#d79b00;" parent="1" vertex="1">
          <mxGeometry x="975" y="900" width="120" height="60" as="geometry" />
        </mxCell>
        <mxCell id="wJimey8sM2e01Dv6nmVG-53" value="Adresa" style="ellipse;whiteSpace=wrap;html=1;flipV=1;flipH=0;direction=east;fillColor=#f8cecc;strokeColor=#b85450;" parent="1" vertex="1">
          <mxGeometry x="865" y="970" width="90" height="50" as="geometry" />
        </mxCell>
        <mxCell id="wJimey8sM2e01Dv6nmVG-54" value="Racun" style="rounded=0;whiteSpace=wrap;html=1;fillColor=#ffe6cc;strokeColor=#d79b00;" parent="1" vertex="1">
          <mxGeometry x="975" y="660" width="120" height="60" as="geometry" />
        </mxCell>
        <mxCell id="wJimey8sM2e01Dv6nmVG-56" value="SADRZI" style="rhombus;whiteSpace=wrap;html=1;fillColor=#dae8fc;strokeColor=#6c8ebf;" parent="1" vertex="1">
          <mxGeometry x="800" y="650" width="100" height="80" as="geometry" />
        </mxCell>
        <mxCell id="wJimey8sM2e01Dv6nmVG-57" value="" style="endArrow=none;html=1;rounded=0;entryX=0;entryY=0.5;entryDx=0;entryDy=0;exitX=1;exitY=1;exitDx=0;exitDy=0;" parent="1" source="wJimey8sM2e01Dv6nmVG-21" target="wJimey8sM2e01Dv6nmVG-56" edge="1">
          <mxGeometry width="50" height="50" relative="1" as="geometry">
            <mxPoint x="720" y="410" as="sourcePoint" />
            <mxPoint x="770" y="360" as="targetPoint" />
            <Array as="points">
              <mxPoint x="720" y="420" />
              <mxPoint x="720" y="690" />
            </Array>
          </mxGeometry>
        </mxCell>
        <mxCell id="wJimey8sM2e01Dv6nmVG-59" value="(0, N)" style="edgeLabel;html=1;align=center;verticalAlign=middle;resizable=0;points=[];" parent="wJimey8sM2e01Dv6nmVG-57" vertex="1" connectable="0">
          <mxGeometry x="-0.1479" y="-1" relative="1" as="geometry">
            <mxPoint as="offset" />
          </mxGeometry>
        </mxCell>
        <mxCell id="wJimey8sM2e01Dv6nmVG-58" value="" style="endArrow=none;html=1;rounded=0;entryX=0;entryY=0.5;entryDx=0;entryDy=0;exitX=1;exitY=0.5;exitDx=0;exitDy=0;" parent="1" source="wJimey8sM2e01Dv6nmVG-56" target="wJimey8sM2e01Dv6nmVG-54" edge="1">
          <mxGeometry width="50" height="50" relative="1" as="geometry">
            <mxPoint x="905" y="730" as="sourcePoint" />
            <mxPoint x="925" y="730" as="targetPoint" />
          </mxGeometry>
        </mxCell>
        <mxCell id="wJimey8sM2e01Dv6nmVG-60" value="(1, M)" style="edgeLabel;html=1;align=center;verticalAlign=middle;resizable=0;points=[];" parent="wJimey8sM2e01Dv6nmVG-58" vertex="1" connectable="0">
          <mxGeometry x="-0.3476" relative="1" as="geometry">
            <mxPoint as="offset" />
          </mxGeometry>
        </mxCell>
        <mxCell id="wJimey8sM2e01Dv6nmVG-61" value="TRAZI" style="rhombus;whiteSpace=wrap;html=1;fillColor=#dae8fc;strokeColor=#6c8ebf;" parent="1" vertex="1">
          <mxGeometry x="985" y="770" width="100" height="80" as="geometry" />
        </mxCell>
        <mxCell id="wJimey8sM2e01Dv6nmVG-62" value="" style="endArrow=none;html=1;rounded=0;entryX=0.5;entryY=1;entryDx=0;entryDy=0;exitX=0.5;exitY=0;exitDx=0;exitDy=0;" parent="1" source="wJimey8sM2e01Dv6nmVG-52" target="wJimey8sM2e01Dv6nmVG-61" edge="1">
          <mxGeometry width="50" height="50" relative="1" as="geometry">
            <mxPoint x="925" y="930" as="sourcePoint" />
            <mxPoint x="1045" y="870" as="targetPoint" />
          </mxGeometry>
        </mxCell>
        <mxCell id="wJimey8sM2e01Dv6nmVG-65" value="(1, N)" style="edgeLabel;html=1;align=center;verticalAlign=middle;resizable=0;points=[];" parent="wJimey8sM2e01Dv6nmVG-62" vertex="1" connectable="0">
          <mxGeometry x="0.3138" y="-1" relative="1" as="geometry">
            <mxPoint as="offset" />
          </mxGeometry>
        </mxCell>
        <mxCell id="wJimey8sM2e01Dv6nmVG-64" value="(1,1)" style="endArrow=none;html=1;rounded=0;entryX=0.5;entryY=1;entryDx=0;entryDy=0;exitX=0.5;exitY=0;exitDx=0;exitDy=0;" parent="1" source="wJimey8sM2e01Dv6nmVG-61" target="wJimey8sM2e01Dv6nmVG-54" edge="1">
          <mxGeometry width="50" height="50" relative="1" as="geometry">
            <mxPoint x="1085" y="820" as="sourcePoint" />
            <mxPoint x="1085" y="760" as="targetPoint" />
          </mxGeometry>
        </mxCell>
        <mxCell id="wJimey8sM2e01Dv6nmVG-66" value="Zaposlenik" style="rounded=0;whiteSpace=wrap;html=1;fillColor=#ffe6cc;strokeColor=#d79b00;" parent="1" vertex="1">
          <mxGeometry x="975" y="360" width="120" height="60" as="geometry" />
        </mxCell>
        <mxCell id="wJimey8sM2e01Dv6nmVG-67" value="(1, N)" style="endArrow=none;html=1;rounded=0;entryX=0.5;entryY=1;entryDx=0;entryDy=0;exitX=0.5;exitY=0;exitDx=0;exitDy=0;" parent="1" source="wJimey8sM2e01Dv6nmVG-68" target="wJimey8sM2e01Dv6nmVG-66" edge="1">
          <mxGeometry width="50" height="50" relative="1" as="geometry">
            <mxPoint x="1035" y="520" as="sourcePoint" />
            <mxPoint x="1085" y="550" as="targetPoint" />
            <Array as="points">
              <mxPoint x="1035" y="490" />
            </Array>
          </mxGeometry>
        </mxCell>
        <mxCell id="wJimey8sM2e01Dv6nmVG-68" value="IZDAJE" style="rhombus;whiteSpace=wrap;html=1;fillColor=#dae8fc;strokeColor=#6c8ebf;" parent="1" vertex="1">
          <mxGeometry x="985" y="520" width="100" height="80" as="geometry" />
        </mxCell>
        <mxCell id="wJimey8sM2e01Dv6nmVG-70" value="(1, M)" style="endArrow=none;html=1;rounded=0;entryX=0.5;entryY=1;entryDx=0;entryDy=0;exitX=0.5;exitY=0;exitDx=0;exitDy=0;" parent="1" source="wJimey8sM2e01Dv6nmVG-54" target="wJimey8sM2e01Dv6nmVG-68" edge="1">
          <mxGeometry width="50" height="50" relative="1" as="geometry">
            <mxPoint x="1095" y="650" as="sourcePoint" />
            <mxPoint x="1145" y="600" as="targetPoint" />
          </mxGeometry>
        </mxCell>
        <mxCell id="wJimey8sM2e01Dv6nmVG-71" value="Ime" style="ellipse;whiteSpace=wrap;html=1;flipV=1;flipH=0;direction=east;fillColor=#f8cecc;strokeColor=#b85450;" parent="1" vertex="1">
          <mxGeometry x="945" y="1020" width="90" height="50" as="geometry" />
        </mxCell>
        <mxCell id="wJimey8sM2e01Dv6nmVG-72" value="Prezime" style="ellipse;whiteSpace=wrap;html=1;flipV=1;flipH=0;direction=east;fillColor=#f8cecc;strokeColor=#b85450;" parent="1" vertex="1">
          <mxGeometry x="1045" y="1020" width="90" height="50" as="geometry" />
        </mxCell>
        <mxCell id="wJimey8sM2e01Dv6nmVG-73" value="&lt;b&gt;&lt;u&gt;OIB&lt;/u&gt;&lt;/b&gt;" style="ellipse;whiteSpace=wrap;html=1;flipV=1;flipH=0;direction=east;fillColor=#f8cecc;strokeColor=#b85450;" parent="1" vertex="1">
          <mxGeometry x="1125" y="970" width="90" height="50" as="geometry" />
        </mxCell>
        <mxCell id="wJimey8sM2e01Dv6nmVG-74" value="" style="endArrow=none;html=1;rounded=0;entryX=0.5;entryY=1;entryDx=0;entryDy=0;exitX=1;exitY=0.5;exitDx=0;exitDy=0;" parent="1" source="wJimey8sM2e01Dv6nmVG-53" target="wJimey8sM2e01Dv6nmVG-52" edge="1">
          <mxGeometry width="50" height="50" relative="1" as="geometry">
            <mxPoint x="985" y="1150" as="sourcePoint" />
            <mxPoint x="1035" y="1100" as="targetPoint" />
          </mxGeometry>
        </mxCell>
        <mxCell id="wJimey8sM2e01Dv6nmVG-75" value="" style="endArrow=none;html=1;rounded=0;entryX=0.5;entryY=1;entryDx=0;entryDy=0;exitX=0.5;exitY=0;exitDx=0;exitDy=0;" parent="1" source="wJimey8sM2e01Dv6nmVG-71" target="wJimey8sM2e01Dv6nmVG-52" edge="1">
          <mxGeometry width="50" height="50" relative="1" as="geometry">
            <mxPoint x="965" y="1005" as="sourcePoint" />
            <mxPoint x="1045" y="970" as="targetPoint" />
          </mxGeometry>
        </mxCell>
        <mxCell id="wJimey8sM2e01Dv6nmVG-76" value="" style="endArrow=none;html=1;rounded=0;entryX=0.5;entryY=1;entryDx=0;entryDy=0;exitX=0.5;exitY=0;exitDx=0;exitDy=0;" parent="1" source="wJimey8sM2e01Dv6nmVG-72" target="wJimey8sM2e01Dv6nmVG-52" edge="1">
          <mxGeometry width="50" height="50" relative="1" as="geometry">
            <mxPoint x="975" y="1015" as="sourcePoint" />
            <mxPoint x="1055" y="980" as="targetPoint" />
          </mxGeometry>
        </mxCell>
        <mxCell id="wJimey8sM2e01Dv6nmVG-77" value="" style="endArrow=none;html=1;rounded=0;entryX=0.5;entryY=1;entryDx=0;entryDy=0;exitX=0;exitY=0.5;exitDx=0;exitDy=0;" parent="1" source="wJimey8sM2e01Dv6nmVG-73" target="wJimey8sM2e01Dv6nmVG-52" edge="1">
          <mxGeometry width="50" height="50" relative="1" as="geometry">
            <mxPoint x="985" y="1025" as="sourcePoint" />
            <mxPoint x="1065" y="990" as="targetPoint" />
          </mxGeometry>
        </mxCell>
        <mxCell id="wJimey8sM2e01Dv6nmVG-82" value="Adresa" style="ellipse;whiteSpace=wrap;html=1;flipV=1;flipH=0;direction=east;fillColor=#f8cecc;strokeColor=#b85450;" parent="1" vertex="1">
          <mxGeometry x="1070" y="450" width="90" height="50" as="geometry" />
        </mxCell>
        <mxCell id="wJimey8sM2e01Dv6nmVG-83" value="Ime" style="ellipse;whiteSpace=wrap;html=1;flipV=1;flipH=0;direction=east;fillColor=#f8cecc;strokeColor=#b85450;" parent="1" vertex="1">
          <mxGeometry x="910" y="450" width="90" height="50" as="geometry" />
        </mxCell>
        <mxCell id="wJimey8sM2e01Dv6nmVG-84" value="Prezime" style="ellipse;whiteSpace=wrap;html=1;flipV=1;flipH=0;direction=east;fillColor=#f8cecc;strokeColor=#b85450;" parent="1" vertex="1">
          <mxGeometry x="945" y="290" width="90" height="50" as="geometry" />
        </mxCell>
        <mxCell id="wJimey8sM2e01Dv6nmVG-85" value="&lt;b&gt;&lt;u&gt;OIB&lt;/u&gt;&lt;/b&gt;" style="ellipse;whiteSpace=wrap;html=1;flipV=1;flipH=0;direction=east;fillColor=#f8cecc;strokeColor=#b85450;" parent="1" vertex="1">
          <mxGeometry x="1045" y="290" width="90" height="50" as="geometry" />
        </mxCell>
        <mxCell id="wJimey8sM2e01Dv6nmVG-86" value="" style="endArrow=none;html=1;rounded=0;entryX=0.5;entryY=1;entryDx=0;entryDy=0;exitX=0.5;exitY=0;exitDx=0;exitDy=0;" parent="1" source="wJimey8sM2e01Dv6nmVG-66" target="wJimey8sM2e01Dv6nmVG-84" edge="1">
          <mxGeometry width="50" height="50" relative="1" as="geometry">
            <mxPoint x="1025" y="390" as="sourcePoint" />
            <mxPoint x="1065" y="390" as="targetPoint" />
          </mxGeometry>
        </mxCell>
        <mxCell id="wJimey8sM2e01Dv6nmVG-87" value="" style="endArrow=none;html=1;rounded=0;exitX=0.5;exitY=1;exitDx=0;exitDy=0;entryX=1;entryY=0;entryDx=0;entryDy=0;" parent="1" source="wJimey8sM2e01Dv6nmVG-66" target="wJimey8sM2e01Dv6nmVG-83" edge="1">
          <mxGeometry width="50" height="50" relative="1" as="geometry">
            <mxPoint x="975" y="430" as="sourcePoint" />
            <mxPoint x="1005" y="360" as="targetPoint" />
          </mxGeometry>
        </mxCell>
        <mxCell id="wJimey8sM2e01Dv6nmVG-88" value="" style="endArrow=none;html=1;rounded=0;entryX=0;entryY=0;entryDx=0;entryDy=0;exitX=0.5;exitY=1;exitDx=0;exitDy=0;" parent="1" source="wJimey8sM2e01Dv6nmVG-66" target="wJimey8sM2e01Dv6nmVG-82" edge="1">
          <mxGeometry width="50" height="50" relative="1" as="geometry">
            <mxPoint x="825" y="490" as="sourcePoint" />
            <mxPoint x="875" y="440" as="targetPoint" />
          </mxGeometry>
        </mxCell>
        <mxCell id="wJimey8sM2e01Dv6nmVG-89" value="" style="endArrow=none;html=1;rounded=0;entryX=0.5;entryY=1;entryDx=0;entryDy=0;exitX=0.5;exitY=0;exitDx=0;exitDy=0;" parent="1" source="wJimey8sM2e01Dv6nmVG-66" target="wJimey8sM2e01Dv6nmVG-85" edge="1">
          <mxGeometry width="50" height="50" relative="1" as="geometry">
            <mxPoint x="1205" y="500" as="sourcePoint" />
            <mxPoint x="1255" y="450" as="targetPoint" />
          </mxGeometry>
        </mxCell>
        <mxCell id="wJimey8sM2e01Dv6nmVG-90" value="(1, N)" style="endArrow=none;html=1;rounded=0;entryX=0;entryY=0.5;entryDx=0;entryDy=0;" parent="1" target="wJimey8sM2e01Dv6nmVG-91" edge="1">
          <mxGeometry width="50" height="50" relative="1" as="geometry">
            <mxPoint x="1095" y="360" as="sourcePoint" />
            <mxPoint x="1375" y="440" as="targetPoint" />
            <Array as="points">
              <mxPoint x="1180" y="360" />
              <mxPoint x="1180" y="300" />
            </Array>
          </mxGeometry>
        </mxCell>
        <mxCell id="wJimey8sM2e01Dv6nmVG-91" value="VODI EVIDENCIJU" style="rhombus;whiteSpace=wrap;html=1;fillColor=#dae8fc;strokeColor=#6c8ebf;" parent="1" vertex="1">
          <mxGeometry x="1275" y="260" width="100" height="80" as="geometry" />
        </mxCell>
        <mxCell id="wJimey8sM2e01Dv6nmVG-92" value="" style="endArrow=none;html=1;rounded=0;exitX=1;exitY=0.5;exitDx=0;exitDy=0;entryX=0.5;entryY=1;entryDx=0;entryDy=0;" parent="1" source="wJimey8sM2e01Dv6nmVG-91" target="wJimey8sM2e01Dv6nmVG-93" edge="1">
          <mxGeometry width="50" height="50" relative="1" as="geometry">
            <mxPoint x="1445" y="529.3299999999999" as="sourcePoint" />
            <mxPoint x="1745" y="440" as="targetPoint" />
            <Array as="points">
              <mxPoint x="1435" y="300" />
            </Array>
          </mxGeometry>
        </mxCell>
        <mxCell id="wJimey8sM2e01Dv6nmVG-94" value="(1, M)" style="edgeLabel;html=1;align=center;verticalAlign=middle;resizable=0;points=[];" parent="wJimey8sM2e01Dv6nmVG-92" vertex="1" connectable="0">
          <mxGeometry x="-0.1325" y="-1" relative="1" as="geometry">
            <mxPoint as="offset" />
          </mxGeometry>
        </mxCell>
        <mxCell id="wJimey8sM2e01Dv6nmVG-93" value="Skladiste" style="rounded=0;whiteSpace=wrap;html=1;fillColor=#ffe6cc;strokeColor=#d79b00;" parent="1" vertex="1">
          <mxGeometry x="1375" y="190" width="120" height="60" as="geometry" />
        </mxCell>
        <mxCell id="wJimey8sM2e01Dv6nmVG-96" value="&lt;b&gt;&lt;u&gt;ID&lt;/u&gt;&lt;/b&gt;" style="ellipse;whiteSpace=wrap;html=1;flipV=1;flipH=0;direction=east;fillColor=#f8cecc;strokeColor=#b85450;" parent="1" vertex="1">
          <mxGeometry x="1110" y="570" width="90" height="50" as="geometry" />
        </mxCell>
        <mxCell id="wJimey8sM2e01Dv6nmVG-97" value="Datum" style="ellipse;whiteSpace=wrap;html=1;flipV=1;flipH=0;direction=east;fillColor=#f8cecc;strokeColor=#b85450;" parent="1" vertex="1">
          <mxGeometry x="1150" y="620" width="90" height="50" as="geometry" />
        </mxCell>
        <mxCell id="wJimey8sM2e01Dv6nmVG-98" value="Vrijeme" style="ellipse;whiteSpace=wrap;html=1;flipV=1;flipH=0;direction=east;fillColor=#f8cecc;strokeColor=#b85450;" parent="1" vertex="1">
          <mxGeometry x="1110" y="740" width="90" height="50" as="geometry" />
        </mxCell>
        <mxCell id="wJimey8sM2e01Dv6nmVG-99" value="" style="endArrow=none;html=1;rounded=0;entryX=1;entryY=0.5;entryDx=0;entryDy=0;exitX=0;exitY=1;exitDx=0;exitDy=0;" parent="1" source="wJimey8sM2e01Dv6nmVG-96" target="wJimey8sM2e01Dv6nmVG-54" edge="1">
          <mxGeometry width="50" height="50" relative="1" as="geometry">
            <mxPoint x="1390" y="850" as="sourcePoint" />
            <mxPoint x="1300" y="815" as="targetPoint" />
          </mxGeometry>
        </mxCell>
        <mxCell id="wJimey8sM2e01Dv6nmVG-100" value="" style="endArrow=none;html=1;rounded=0;entryX=1;entryY=0.5;entryDx=0;entryDy=0;exitX=0;exitY=0.5;exitDx=0;exitDy=0;" parent="1" source="wJimey8sM2e01Dv6nmVG-97" target="wJimey8sM2e01Dv6nmVG-54" edge="1">
          <mxGeometry width="50" height="50" relative="1" as="geometry">
            <mxPoint x="1148" y="653" as="sourcePoint" />
            <mxPoint x="1105" y="700" as="targetPoint" />
          </mxGeometry>
        </mxCell>
        <mxCell id="wJimey8sM2e01Dv6nmVG-101" value="" style="endArrow=none;html=1;rounded=0;entryX=1;entryY=0.5;entryDx=0;entryDy=0;exitX=0;exitY=0;exitDx=0;exitDy=0;" parent="1" source="wJimey8sM2e01Dv6nmVG-98" target="wJimey8sM2e01Dv6nmVG-54" edge="1">
          <mxGeometry width="50" height="50" relative="1" as="geometry">
            <mxPoint x="1158" y="663" as="sourcePoint" />
            <mxPoint x="1115" y="710" as="targetPoint" />
          </mxGeometry>
        </mxCell>
        <mxCell id="wJimey8sM2e01Dv6nmVG-104" value="&lt;b&gt;&lt;u&gt;ID&lt;/u&gt;&lt;/b&gt;" style="ellipse;whiteSpace=wrap;html=1;flipV=1;flipH=0;direction=east;fillColor=#f8cecc;strokeColor=#b85450;" parent="1" vertex="1">
          <mxGeometry x="1550" y="230" width="90" height="50" as="geometry" />
        </mxCell>
        <mxCell id="wJimey8sM2e01Dv6nmVG-105" value="Ime" style="ellipse;whiteSpace=wrap;html=1;flipV=1;flipH=0;direction=east;fillColor=#f8cecc;strokeColor=#b85450;" parent="1" vertex="1">
          <mxGeometry x="1550" y="160" width="90" height="50" as="geometry" />
        </mxCell>
        <mxCell id="wJimey8sM2e01Dv6nmVG-106" value="" style="endArrow=none;html=1;rounded=0;entryX=1;entryY=0.5;entryDx=0;entryDy=0;exitX=0;exitY=0.5;exitDx=0;exitDy=0;" parent="1" source="wJimey8sM2e01Dv6nmVG-104" target="wJimey8sM2e01Dv6nmVG-93" edge="1">
          <mxGeometry width="50" height="50" relative="1" as="geometry">
            <mxPoint x="1420.53" y="390" as="sourcePoint" />
            <mxPoint x="1470.53" y="340" as="targetPoint" />
          </mxGeometry>
        </mxCell>
        <mxCell id="wJimey8sM2e01Dv6nmVG-107" value="" style="endArrow=none;html=1;rounded=0;entryX=1;entryY=0.5;entryDx=0;entryDy=0;exitX=0;exitY=0.5;exitDx=0;exitDy=0;" parent="1" source="wJimey8sM2e01Dv6nmVG-105" target="wJimey8sM2e01Dv6nmVG-93" edge="1">
          <mxGeometry width="50" height="50" relative="1" as="geometry">
            <mxPoint x="1670" y="210" as="sourcePoint" />
            <mxPoint x="1580.53" y="200" as="targetPoint" />
          </mxGeometry>
        </mxCell>
        <mxCell id="wJimey8sM2e01Dv6nmVG-115" value="SE NALAZI U" style="rhombus;whiteSpace=wrap;html=1;fillColor=#dae8fc;strokeColor=#6c8ebf;" parent="1" vertex="1">
          <mxGeometry x="945" y="180" width="100" height="80" as="geometry" />
        </mxCell>
        <mxCell id="wJimey8sM2e01Dv6nmVG-116" value="" style="endArrow=none;html=1;rounded=0;entryX=0;entryY=0.5;entryDx=0;entryDy=0;exitX=1;exitY=0;exitDx=0;exitDy=0;" parent="1" source="wJimey8sM2e01Dv6nmVG-21" target="wJimey8sM2e01Dv6nmVG-115" edge="1">
          <mxGeometry width="50" height="50" relative="1" as="geometry">
            <mxPoint x="850" y="230" as="sourcePoint" />
            <mxPoint x="1655" y="640" as="targetPoint" />
            <Array as="points">
              <mxPoint x="720" y="360" />
              <mxPoint x="720" y="220" />
            </Array>
          </mxGeometry>
        </mxCell>
        <mxCell id="wJimey8sM2e01Dv6nmVG-118" value="(0, N)" style="edgeLabel;html=1;align=center;verticalAlign=middle;resizable=0;points=[];" parent="wJimey8sM2e01Dv6nmVG-116" vertex="1" connectable="0">
          <mxGeometry x="-0.0523" y="2" relative="1" as="geometry">
            <mxPoint as="offset" />
          </mxGeometry>
        </mxCell>
        <mxCell id="wJimey8sM2e01Dv6nmVG-117" value="(0, M)" style="endArrow=none;html=1;rounded=0;exitX=1;exitY=0.5;exitDx=0;exitDy=0;entryX=0;entryY=0.5;entryDx=0;entryDy=0;" parent="1" source="wJimey8sM2e01Dv6nmVG-115" target="wJimey8sM2e01Dv6nmVG-93" edge="1">
          <mxGeometry width="50" height="50" relative="1" as="geometry">
            <mxPoint x="1605" y="680" as="sourcePoint" />
            <mxPoint x="1400" y="210" as="targetPoint" />
          </mxGeometry>
        </mxCell>
        <mxCell id="wJimey8sM2e01Dv6nmVG-124" value="Dnevni promet" style="rounded=0;whiteSpace=wrap;html=1;fillColor=#ffe6cc;strokeColor=#d79b00;" parent="1" vertex="1">
          <mxGeometry x="1375" y="530" width="120" height="60" as="geometry" />
        </mxCell>
        <mxCell id="wJimey8sM2e01Dv6nmVG-126" value="VODI EVIDENCIJU" style="rhombus;whiteSpace=wrap;html=1;fillColor=#dae8fc;strokeColor=#6c8ebf;" parent="1" vertex="1">
          <mxGeometry x="1275" y="440" width="100" height="80" as="geometry" />
        </mxCell>
        <mxCell id="wJimey8sM2e01Dv6nmVG-127" value="(1, N)" style="endArrow=none;html=1;rounded=0;exitX=1;exitY=1;exitDx=0;exitDy=0;entryX=0;entryY=0.5;entryDx=0;entryDy=0;" parent="1" source="wJimey8sM2e01Dv6nmVG-66" target="wJimey8sM2e01Dv6nmVG-126" edge="1">
          <mxGeometry x="0.0952" width="50" height="50" relative="1" as="geometry">
            <mxPoint x="1105" y="370" as="sourcePoint" />
            <mxPoint x="1285" y="340" as="targetPoint" />
            <Array as="points">
              <mxPoint x="1180" y="420" />
              <mxPoint x="1180" y="480" />
            </Array>
            <mxPoint as="offset" />
          </mxGeometry>
        </mxCell>
        <mxCell id="wJimey8sM2e01Dv6nmVG-128" value="" style="endArrow=none;html=1;rounded=0;exitX=1;exitY=0.5;exitDx=0;exitDy=0;entryX=0.5;entryY=0;entryDx=0;entryDy=0;" parent="1" source="wJimey8sM2e01Dv6nmVG-126" target="wJimey8sM2e01Dv6nmVG-124" edge="1">
          <mxGeometry width="50" height="50" relative="1" as="geometry">
            <mxPoint x="1375" y="455" as="sourcePoint" />
            <mxPoint x="1435" y="375" as="targetPoint" />
            <Array as="points">
              <mxPoint x="1435" y="480" />
            </Array>
          </mxGeometry>
        </mxCell>
        <mxCell id="wJimey8sM2e01Dv6nmVG-129" value="(1, M)" style="edgeLabel;html=1;align=center;verticalAlign=middle;resizable=0;points=[];" parent="wJimey8sM2e01Dv6nmVG-128" vertex="1" connectable="0">
          <mxGeometry x="-0.1325" y="-1" relative="1" as="geometry">
            <mxPoint as="offset" />
          </mxGeometry>
        </mxCell>
        <mxCell id="wJimey8sM2e01Dv6nmVG-130" value="(1, N)" style="endArrow=none;html=1;rounded=0;exitX=1;exitY=0.5;exitDx=0;exitDy=0;entryX=0;entryY=0.5;entryDx=0;entryDy=0;" parent="1" source="wJimey8sM2e01Dv6nmVG-66" target="wJimey8sM2e01Dv6nmVG-131" edge="1">
          <mxGeometry x="0.0952" width="50" height="50" relative="1" as="geometry">
            <mxPoint x="1095" y="390" as="sourcePoint" />
            <mxPoint x="1250" y="390" as="targetPoint" />
            <Array as="points">
              <mxPoint x="1120" y="390" />
              <mxPoint x="1200" y="390" />
            </Array>
            <mxPoint as="offset" />
          </mxGeometry>
        </mxCell>
        <mxCell id="wJimey8sM2e01Dv6nmVG-131" value="VODI EVIDENCIJU" style="rhombus;whiteSpace=wrap;html=1;fillColor=#dae8fc;strokeColor=#6c8ebf;" parent="1" vertex="1">
          <mxGeometry x="1275" y="350" width="100" height="80" as="geometry" />
        </mxCell>
        <mxCell id="wJimey8sM2e01Dv6nmVG-133" value="" style="endArrow=none;html=1;rounded=0;exitX=1;exitY=0.5;exitDx=0;exitDy=0;entryX=0;entryY=0.5;entryDx=0;entryDy=0;" parent="1" source="wJimey8sM2e01Dv6nmVG-131" target="wJimey8sM2e01Dv6nmVG-135" edge="1">
          <mxGeometry width="50" height="50" relative="1" as="geometry">
            <mxPoint x="1375" y="390" as="sourcePoint" />
            <mxPoint x="1475" y="390" as="targetPoint" />
            <Array as="points">
              <mxPoint x="1435" y="390" />
            </Array>
          </mxGeometry>
        </mxCell>
        <mxCell id="wJimey8sM2e01Dv6nmVG-134" value="(1, M)" style="edgeLabel;html=1;align=center;verticalAlign=middle;resizable=0;points=[];" parent="wJimey8sM2e01Dv6nmVG-133" vertex="1" connectable="0">
          <mxGeometry x="-0.1325" y="-1" relative="1" as="geometry">
            <mxPoint as="offset" />
          </mxGeometry>
        </mxCell>
        <mxCell id="wJimey8sM2e01Dv6nmVG-135" value="Mjesecni promet" style="rounded=0;whiteSpace=wrap;html=1;fillColor=#ffe6cc;strokeColor=#d79b00;" parent="1" vertex="1">
          <mxGeometry x="1480" y="360" width="120" height="60" as="geometry" />
        </mxCell>
        <mxCell id="wJimey8sM2e01Dv6nmVG-136" value="" style="endArrow=none;html=1;rounded=0;exitX=0.5;exitY=0;exitDx=0;exitDy=0;entryX=0.5;entryY=1;entryDx=0;entryDy=0;" parent="1" source="wJimey8sM2e01Dv6nmVG-115" target="wJimey8sM2e01Dv6nmVG-138" edge="1">
          <mxGeometry width="50" height="50" relative="1" as="geometry">
            <mxPoint x="970" y="150" as="sourcePoint" />
            <mxPoint x="995" y="140" as="targetPoint" />
          </mxGeometry>
        </mxCell>
        <mxCell id="wJimey8sM2e01Dv6nmVG-138" value="Kolicina voca na stanju" style="ellipse;whiteSpace=wrap;html=1;flipV=1;flipH=0;direction=east;fillColor=#f8cecc;strokeColor=#b85450;" parent="1" vertex="1">
          <mxGeometry x="950" y="100" width="90" height="50" as="geometry" />
        </mxCell>
        <mxCell id="wJimey8sM2e01Dv6nmVG-139" value="&lt;b&gt;&lt;u&gt;Datum&lt;/u&gt;&lt;/b&gt;" style="ellipse;whiteSpace=wrap;html=1;flipV=1;flipH=0;direction=east;fillColor=#f8cecc;strokeColor=#b85450;" parent="1" vertex="1">
          <mxGeometry x="1540" y="580" width="90" height="50" as="geometry" />
        </mxCell>
        <mxCell id="wJimey8sM2e01Dv6nmVG-140" value="" style="endArrow=none;html=1;rounded=0;entryX=0;entryY=0.5;entryDx=0;entryDy=0;exitX=1;exitY=0.5;exitDx=0;exitDy=0;" parent="1" source="wJimey8sM2e01Dv6nmVG-124" target="wJimey8sM2e01Dv6nmVG-139" edge="1">
          <mxGeometry width="50" height="50" relative="1" as="geometry">
            <mxPoint x="1320" y="630" as="sourcePoint" />
            <mxPoint x="1270" y="630" as="targetPoint" />
          </mxGeometry>
        </mxCell>
        <mxCell id="wJimey8sM2e01Dv6nmVG-141" value="" style="endArrow=none;html=1;rounded=0;entryX=1;entryY=0.5;entryDx=0;entryDy=0;exitX=0;exitY=0.5;exitDx=0;exitDy=0;" parent="1" source="wJimey8sM2e01Dv6nmVG-142" target="wJimey8sM2e01Dv6nmVG-124" edge="1">
          <mxGeometry width="50" height="50" relative="1" as="geometry">
            <mxPoint x="1520" y="639.71" as="sourcePoint" />
            <mxPoint x="1470" y="639.71" as="targetPoint" />
          </mxGeometry>
        </mxCell>
        <mxCell id="wJimey8sM2e01Dv6nmVG-142" value="Iznos" style="ellipse;whiteSpace=wrap;html=1;flipV=1;flipH=0;direction=east;fillColor=#f8cecc;strokeColor=#b85450;" parent="1" vertex="1">
          <mxGeometry x="1540" y="490" width="90" height="50" as="geometry" />
        </mxCell>
        <mxCell id="wJimey8sM2e01Dv6nmVG-143" value="Mjesec" style="ellipse;whiteSpace=wrap;html=1;flipV=1;flipH=0;direction=east;fillColor=#f8cecc;strokeColor=#b85450;" parent="1" vertex="1">
          <mxGeometry x="1630" y="300" width="90" height="50" as="geometry" />
        </mxCell>
        <mxCell id="wJimey8sM2e01Dv6nmVG-144" value="&lt;u&gt;&lt;b&gt;Godina&lt;/b&gt;&lt;/u&gt;" style="ellipse;whiteSpace=wrap;html=1;flipV=1;flipH=0;direction=east;fillColor=#f8cecc;strokeColor=#b85450;" parent="1" vertex="1">
          <mxGeometry x="1640" y="365" width="90" height="50" as="geometry" />
        </mxCell>
        <mxCell id="wJimey8sM2e01Dv6nmVG-145" value="Iznos" style="ellipse;whiteSpace=wrap;html=1;flipV=1;flipH=0;direction=east;fillColor=#f8cecc;strokeColor=#b85450;" parent="1" vertex="1">
          <mxGeometry x="1630" y="430" width="90" height="50" as="geometry" />
        </mxCell>
        <mxCell id="wJimey8sM2e01Dv6nmVG-146" value="" style="endArrow=none;html=1;rounded=0;entryX=1;entryY=0.5;entryDx=0;entryDy=0;exitX=0;exitY=0.5;exitDx=0;exitDy=0;" parent="1" source="wJimey8sM2e01Dv6nmVG-144" target="wJimey8sM2e01Dv6nmVG-135" edge="1">
          <mxGeometry width="50" height="50" relative="1" as="geometry">
            <mxPoint x="1622.5" y="400" as="sourcePoint" />
            <mxPoint x="1567.5" y="365" as="targetPoint" />
          </mxGeometry>
        </mxCell>
        <mxCell id="wJimey8sM2e01Dv6nmVG-148" value="" style="endArrow=none;html=1;rounded=0;entryX=1;entryY=0.5;entryDx=0;entryDy=0;exitX=0;exitY=0.5;exitDx=0;exitDy=0;" parent="1" source="wJimey8sM2e01Dv6nmVG-143" target="wJimey8sM2e01Dv6nmVG-135" edge="1">
          <mxGeometry width="50" height="50" relative="1" as="geometry">
            <mxPoint x="1630" y="419.43" as="sourcePoint" />
            <mxPoint x="1590" y="419.43" as="targetPoint" />
          </mxGeometry>
        </mxCell>
        <mxCell id="wJimey8sM2e01Dv6nmVG-149" value="" style="endArrow=none;html=1;rounded=0;entryX=1;entryY=0.5;entryDx=0;entryDy=0;exitX=0;exitY=0.5;exitDx=0;exitDy=0;" parent="1" source="wJimey8sM2e01Dv6nmVG-145" target="wJimey8sM2e01Dv6nmVG-135" edge="1">
          <mxGeometry width="50" height="50" relative="1" as="geometry">
            <mxPoint x="1660" y="410" as="sourcePoint" />
            <mxPoint x="1620" y="410" as="targetPoint" />
          </mxGeometry>
        </mxCell>
        <mxCell id="wJimey8sM2e01Dv6nmVG-150" value="" style="endArrow=none;html=1;rounded=0;exitX=0.5;exitY=0;exitDx=0;exitDy=0;entryX=0.5;entryY=1;entryDx=0;entryDy=0;" parent="1" source="wJimey8sM2e01Dv6nmVG-16" target="wJimey8sM2e01Dv6nmVG-151" edge="1">
          <mxGeometry width="50" height="50" relative="1" as="geometry">
            <mxPoint x="410" y="200" as="sourcePoint" />
            <mxPoint x="460" y="150" as="targetPoint" />
          </mxGeometry>
        </mxCell>
        <mxCell id="wJimey8sM2e01Dv6nmVG-151" value="Trosak nabave" style="ellipse;whiteSpace=wrap;html=1;fillColor=#f8cecc;strokeColor=#b85450;" parent="1" vertex="1">
          <mxGeometry x="365" y="110" width="90" height="50" as="geometry" />
        </mxCell>
        <mxCell id="wJimey8sM2e01Dv6nmVG-154" value="" style="endArrow=none;html=1;rounded=0;exitX=0.5;exitY=0;exitDx=0;exitDy=0;entryX=0.5;entryY=1;entryDx=0;entryDy=0;" parent="1" source="wJimey8sM2e01Dv6nmVG-16" target="wJimey8sM2e01Dv6nmVG-156" edge="1">
          <mxGeometry width="50" height="50" relative="1" as="geometry">
            <mxPoint x="520" y="230" as="sourcePoint" />
            <mxPoint x="520" y="160" as="targetPoint" />
          </mxGeometry>
        </mxCell>
        <mxCell id="wJimey8sM2e01Dv6nmVG-156" value="Datum nabave" style="ellipse;whiteSpace=wrap;html=1;fillColor=#f8cecc;strokeColor=#b85450;" parent="1" vertex="1">
          <mxGeometry x="470" y="110" width="90" height="50" as="geometry" />
        </mxCell>
        <mxCell id="wJimey8sM2e01Dv6nmVG-161" value="Iznos" style="ellipse;whiteSpace=wrap;html=1;flipV=1;flipH=0;direction=east;fillColor=#f8cecc;strokeColor=#b85450;" parent="1" vertex="1">
          <mxGeometry x="1150" y="690" width="90" height="50" as="geometry" />
        </mxCell>
        <mxCell id="wJimey8sM2e01Dv6nmVG-162" value="" style="endArrow=none;html=1;rounded=0;entryX=1;entryY=0.5;entryDx=0;entryDy=0;exitX=0;exitY=0.5;exitDx=0;exitDy=0;" parent="1" source="wJimey8sM2e01Dv6nmVG-161" target="wJimey8sM2e01Dv6nmVG-54" edge="1">
          <mxGeometry width="50" height="50" relative="1" as="geometry">
            <mxPoint x="1160" y="655" as="sourcePoint" />
            <mxPoint x="1105" y="700" as="targetPoint" />
          </mxGeometry>
        </mxCell>
        <mxCell id="wJimey8sM2e01Dv6nmVG-167" value="" style="endArrow=none;html=1;rounded=0;entryX=0;entryY=0.5;entryDx=0;entryDy=0;exitX=1;exitY=0.5;exitDx=0;exitDy=0;" parent="1" source="wJimey8sM2e01Dv6nmVG-168" target="wJimey8sM2e01Dv6nmVG-66" edge="1">
          <mxGeometry width="50" height="50" relative="1" as="geometry">
            <mxPoint x="940" y="390" as="sourcePoint" />
            <mxPoint x="920" y="390" as="targetPoint" />
          </mxGeometry>
        </mxCell>
        <mxCell id="wJimey8sM2e01Dv6nmVG-179" value="(0, M)" style="edgeLabel;html=1;align=center;verticalAlign=middle;resizable=0;points=[];" parent="wJimey8sM2e01Dv6nmVG-167" vertex="1" connectable="0">
          <mxGeometry x="-0.209" y="2" relative="1" as="geometry">
            <mxPoint as="offset" />
          </mxGeometry>
        </mxCell>
        <mxCell id="wJimey8sM2e01Dv6nmVG-168" value="PRODAJE" style="rhombus;whiteSpace=wrap;html=1;fillColor=#dae8fc;strokeColor=#6c8ebf;" parent="1" vertex="1">
          <mxGeometry x="780" y="350" width="100" height="80" as="geometry" />
        </mxCell>
        <mxCell id="wJimey8sM2e01Dv6nmVG-169" value="" style="endArrow=none;html=1;rounded=0;entryX=0;entryY=0.5;entryDx=0;entryDy=0;exitX=1;exitY=0.5;exitDx=0;exitDy=0;" parent="1" source="wJimey8sM2e01Dv6nmVG-21" target="wJimey8sM2e01Dv6nmVG-168" edge="1">
          <mxGeometry width="50" height="50" relative="1" as="geometry">
            <mxPoint x="720" y="390" as="sourcePoint" />
            <mxPoint x="770" y="390" as="targetPoint" />
          </mxGeometry>
        </mxCell>
        <mxCell id="wJimey8sM2e01Dv6nmVG-178" value="(0, N)" style="edgeLabel;html=1;align=center;verticalAlign=middle;resizable=0;points=[];" parent="wJimey8sM2e01Dv6nmVG-169" vertex="1" connectable="0">
          <mxGeometry x="0.3679" y="1" relative="1" as="geometry">
            <mxPoint as="offset" />
          </mxGeometry>
        </mxCell>
        <mxCell id="wJimey8sM2e01Dv6nmVG-171" value="" style="endArrow=none;html=1;rounded=0;exitX=0.5;exitY=0;exitDx=0;exitDy=0;entryX=0.5;entryY=1;entryDx=0;entryDy=0;" parent="1" source="wJimey8sM2e01Dv6nmVG-168" target="wJimey8sM2e01Dv6nmVG-172" edge="1">
          <mxGeometry width="50" height="50" relative="1" as="geometry">
            <mxPoint x="840" y="330" as="sourcePoint" />
            <mxPoint x="830" y="310" as="targetPoint" />
          </mxGeometry>
        </mxCell>
        <mxCell id="wJimey8sM2e01Dv6nmVG-172" value="Prodana kolicina" style="ellipse;whiteSpace=wrap;html=1;flipV=1;flipH=0;direction=east;fillColor=#f8cecc;strokeColor=#b85450;" parent="1" vertex="1">
          <mxGeometry x="785" y="275" width="90" height="50" as="geometry" />
        </mxCell>
        <mxCell id="wJimey8sM2e01Dv6nmVG-176" value="Rok trajanja" style="ellipse;whiteSpace=wrap;html=1;flipV=1;flipH=0;direction=east;fillColor=#f8cecc;strokeColor=#b85450;" parent="1" vertex="1">
          <mxGeometry x="455" y="300" width="90" height="50" as="geometry" />
        </mxCell>
        <mxCell id="wJimey8sM2e01Dv6nmVG-177" value="" style="endArrow=none;html=1;rounded=0;exitX=1;exitY=0.5;exitDx=0;exitDy=0;entryX=0;entryY=0.5;entryDx=0;entryDy=0;" parent="1" source="wJimey8sM2e01Dv6nmVG-176" target="wJimey8sM2e01Dv6nmVG-21" edge="1">
          <mxGeometry width="50" height="50" relative="1" as="geometry">
            <mxPoint x="580" y="335" as="sourcePoint" />
            <mxPoint x="620" y="360" as="targetPoint" />
          </mxGeometry>
        </mxCell>
      </root>
    </mxGraphModel>
  </diagram>
</mxfile>
